<?xml version="1.0" encoding="UTF-8" standalone="no"?>
<!-- Created with Inkscape (http://www.inkscape.org/) -->

<svg
   width="113.22747mm"
   height="110.18544mm"
   viewBox="0 0 113.22747 110.18544"
   version="1.1"
   id="svg5"
   xmlns="http://www.w3.org/2000/svg"
   xmlns:svg="http://www.w3.org/2000/svg">
  <defs
     id="defs2" />
  <g
     id="layer2"
     transform="translate(-9.3048186,-9.165641)">
    <path
       style="fill:#fff6d5;stroke:#000000;stroke-width:0.264583px;stroke-linecap:butt;stroke-linejoin:miter;stroke-opacity:1"
       d="m 56.163586,46.94183 c -1.190003,-3.867032 -1.903945,-11.839382 -0.833042,-19.216934 1.070904,-7.377553 3.926614,-14.159864 6.128125,-16.956078 2.201512,-2.7962143 3.748357,-1.6063337 5.235628,3.51038 1.487271,5.116713 2.915127,14.159803 2.97456,20.942236 0.05943,6.782432 -1.249434,11.303973 -2.974646,13.44573 -1.725212,2.141757 -3.866998,1.903778 -5.770894,1.903749 -1.903896,-3e-5 -3.569729,0.237949 -4.759731,-3.629083 z"
       id="path629" />
    <path
       style="fill:#fff6d5;stroke:#000000;stroke-width:0.264583px;stroke-linecap:butt;stroke-linejoin:miter;stroke-opacity:1"
       d="m 67.288835,46.768569 c 0.662713,-3.991347 3.585182,-11.443009 7.838831,-17.565229 4.25365,-6.122221 9.838249,-10.91462 13.056968,-12.432945 3.21872,-1.518324 4.071144,0.237215 3.116165,5.479424 -0.95498,5.242209 -3.717015,13.970749 -6.693531,20.065441 -2.976516,6.094692 -6.167297,9.555382 -8.667536,10.700935 -2.500238,1.145552 -4.310158,-0.02409 -6.013533,-0.874583 -1.703374,-0.850491 -3.300076,-1.381696 -2.637364,-5.373043 z"
       id="path629-4" />
    <path
       style="fill:#fff6d5;stroke:#000000;stroke-width:0.264583px;stroke-linecap:butt;stroke-linejoin:miter;stroke-opacity:1"
       d="m 75.332801,53.785949 c 2.531202,-3.156432 8.726469,-8.224639 15.432029,-11.48203 6.70556,-3.257391 13.92102,-4.703746 17.47101,-4.452673 3.54999,0.251073 3.43425,2.199187 0.036,6.303435 -3.39822,4.104247 -10.078458,10.364499 -15.656791,14.22288 -5.578333,3.858381 -10.054504,5.314866 -12.7955,5.090314 -2.740996,-0.224551 -3.746983,-2.130298 -4.816241,-3.705578 -1.069258,-1.57528 -2.201739,-2.819917 0.329463,-5.976348 z"
       id="path629-2" />
    <path
       style="fill:#fff6d5;stroke:#000000;stroke-width:0.264583px;stroke-linecap:butt;stroke-linejoin:miter;stroke-opacity:1"
       d="m 84.615223,61.735344 c 3.842417,-1.26723 11.798867,-2.140736 19.196387,-1.217843 7.39753,0.922893 14.23569,3.642159 17.07544,5.787211 2.83976,2.145053 1.68111,3.715427 -3.40479,5.304902 -5.08589,1.589475 -14.09856,3.198204 -20.87844,3.393497 -6.779881,0.195293 -11.326735,-1.02273 -13.502624,-2.704688 -2.17589,-1.681957 -1.980865,-3.828085 -2.018975,-5.731597 -0.03811,-1.903513 -0.309414,-3.564251 3.533002,-4.831482 z"
       id="path629-7" />
    <path
       style="fill:#fff6d5;stroke:#000000;stroke-width:0.264583px;stroke-linecap:butt;stroke-linejoin:miter;stroke-opacity:1"
       d="m 77.479753,69.40028 c 4.015502,0.495792 11.582487,3.105159 17.87667,7.099958 6.294187,3.994799 11.315167,9.374809 12.966317,12.527453 1.65116,3.152644 -0.0673,4.077494 -5.34478,3.341824 -5.277457,-0.73567 -14.11354,-3.131528 -20.326988,-5.85145 -6.213448,-2.719922 -9.804114,-5.763702 -11.052874,-8.214021 -1.24876,-2.450318 -0.155564,-4.307418 0.623194,-6.044758 0.778758,-1.73734 1.242959,-3.354797 5.258461,-2.859006 z"
       id="path629-20" />
    <path
       style="fill:#fff6d5;stroke:#000000;stroke-width:0.264583px;stroke-linecap:butt;stroke-linejoin:miter;stroke-opacity:1"
       d="m 72.108166,77.10578 c 3.234004,2.431304 8.493375,8.46514 11.958759,15.065613 3.465383,6.600474 5.136553,13.767217 4.996553,17.323317 -0.140001,3.5561 -2.090772,3.50131 -6.299227,0.23302 -4.208456,-3.26828 -10.674435,-9.749582 -14.705287,-15.204602 -4.030851,-5.45502 -5.626528,-9.883478 -5.487756,-12.630155 0.138773,-2.746676 2.01214,-3.81173 3.553233,-4.929703 1.541094,-1.117972 2.74972,-2.288794 5.983725,0.14251 z"
       id="path629-1" />
    <path
       style="fill:#fff6d5;stroke:#000000;stroke-width:0.264583px;stroke-linecap:butt;stroke-linejoin:miter;stroke-opacity:1"
       d="m 66.829706,82.739941 c 1.195844,3.982804 1.909022,11.982893 0.824698,19.176099 -1.084324,7.1932 -3.966126,13.57908 -6.185922,16.08764 -2.219796,2.50857 -3.777108,1.13986 -5.27145,-4.11948 -1.494341,-5.25934 -2.925869,-14.408857 -2.980618,-21.148427 -0.05475,-6.739571 1.267141,-11.06898 3.006627,-12.985668 1.739486,-1.916688 3.89682,-1.420695 5.814697,-1.189743 1.917877,0.230952 3.596125,0.196776 4.791968,4.179579 z"
       id="path629-5" />
    <path
       style="fill:#fff6d5;stroke:#000000;stroke-width:0.264583px;stroke-linecap:butt;stroke-linejoin:miter;stroke-opacity:1"
       d="m 57.076993,86.856495 c -1.476726,3.766873 -5.882219,10.449656 -11.313966,15.555655 -5.431747,5.106 -11.889431,8.63489 -15.353202,9.45207 -3.463771,0.81718 -3.93325,-1.07706 -1.910989,-6.00688 2.022262,-4.92983 6.535846,-12.894992 10.712559,-18.23915 4.176714,-5.344157 8.016308,-8.0672 10.699869,-8.668851 2.683561,-0.601652 4.211291,0.918186 5.70104,2.103708 1.489748,1.185522 2.941416,2.036574 1.464689,5.803448 z"
       id="path629-8" />
    <path
       style="fill:#fff6d5;stroke:#000000;stroke-width:0.264583px;stroke-linecap:butt;stroke-linejoin:miter;stroke-opacity:1"
       d="m 51.024044,80.691858 c -3.585252,1.875107 -11.293799,4.030627 -18.742945,4.322773 -7.449146,0.292146 -14.638435,-1.279127 -17.789169,-2.933927 -3.150734,-1.6548 -2.262826,-3.392651 2.496962,-5.787892 4.759789,-2.395242 13.39097,-5.447931 20.048882,-6.742962 6.657912,-1.295031 11.342302,-0.83248 13.762708,0.47332 2.420407,1.3058 2.576914,3.45508 2.924009,5.32707 0.347095,1.871991 0.884805,3.466511 -2.700447,5.341618 z"
       id="path629-76" />
    <path
       style="fill:#fff6d5;stroke:#000000;stroke-width:0.264583px;stroke-linecap:butt;stroke-linejoin:miter;stroke-opacity:1"
       d="M 41.721106,70.153126 C 37.689006,69.818152 30.023816,67.51317 23.575071,63.773015 17.126325,60.03286 11.894417,54.857729 10.118636,51.773565 8.342854,48.6894 10.02302,47.696638 15.325652,48.220887 c 5.302632,0.524248 14.227359,2.565189 20.544508,5.034712 6.31715,2.469523 10.026546,5.367426 11.3722,7.765904 1.345654,2.398478 0.327519,4.297767 -0.381212,6.06483 -0.708731,1.767064 -1.107941,3.401767 -5.140042,3.066793 z"
       id="path629-13" />
    <path
       style="fill:#fff6d5;stroke:#000000;stroke-width:0.264583px;stroke-linecap:butt;stroke-linejoin:miter;stroke-opacity:1"
       d="m 44.732232,59.524512 c -3.475593,-2.071303 -9.350402,-7.507727 -13.50216,-13.6995 -4.151758,-6.191774 -6.580194,-13.138538 -6.821515,-16.689204 -0.241321,-3.550665 1.704127,-3.704924 6.238132,-0.905722 4.534005,2.799202 11.656383,8.551415 16.247793,13.543797 4.59141,4.992382 6.651784,9.224677 6.807715,11.970431 0.15593,2.745754 -1.592725,4.005157 -3.00534,5.281609 -1.412616,1.276453 -2.489032,2.569892 -5.964625,0.498589 z"
       id="path629-3" />
    <path
       style="fill:#fff6d5;stroke:#000000;stroke-width:0.264583px;stroke-linecap:butt;stroke-linejoin:miter;stroke-opacity:1"
       d="M 51.51183,56.261912 C 48.903742,53.168707 45.127596,46.111172 43.22673,38.902717 41.325863,31.694262 41.300413,24.33531 42.232441,20.900665 c 0.932028,-3.434644 2.821107,-2.944802 6.191695,1.182166 3.370589,4.126968 8.22266,11.890579 10.930925,18.109116 2.708266,6.218538 3.272748,10.89174 2.523002,13.537749 -0.749745,2.646008 -2.813915,3.264956 -4.566057,4.009811 -1.752143,0.744855 -3.192088,1.61561 -5.800176,-1.477595 z"
       id="path629-15" />
  </g>
  <g
     id="layer1"
     transform="translate(-9.3048186,-9.165641)">
    <ellipse
       style="fill:#ffdd55;stroke-width:0.223692"
       id="path53"
       cx="62.291466"
       cy="66.753609"
       rx="21.239784"
       ry="20.704327" />
    <path
       style="fill:#aa8800;fill-rule:evenodd;stroke:#000000"
       id="path160"
       d="m 240.15445,241.50363 c 3.44994,1.42057 -0.21282,5.35131 -2.36107,5.73402 -5.82165,1.03715 -9.52216,-5.43129 -9.10698,-10.45617 0.74267,-8.98831 10.3116,-13.99209 18.55127,-12.47992 12.09205,2.21917 18.55603,15.2442 15.85287,26.64636 -3.60288,15.1973 -20.19354,23.15772 -34.74146,19.22583 -18.30707,-4.94789 -27.77846,-25.15042 -22.59877,-42.83656 6.27329,-21.42028 30.11145,-32.41015 50.93165,-25.97172 24.53589,7.58746 37.0487,35.07506 29.34467,59.02675 -8.8946,27.65317 -40.04039,41.69182 -67.12184,32.71762 -30.77167,-10.19706 -46.33815,-45.00694 -36.09057,-75.21694 11.49624,-33.89106 49.97437,-50.98682 83.31204,-39.46352 37.01113,12.79304 55.63722,54.94247 42.83647,91.40713"
       transform="matrix(0.26458333,0,0,0.26458333,-2.141827,4.9975962)" />
  </g>
</svg>
